<?xml version="1.0" standalone="no"?>
<!DOCTYPE svg PUBLIC "-//W3C//DTD SVG 20010904//EN"
 "http://www.w3.org/TR/2001/REC-SVG-20010904/DTD/svg10.dtd">
<svg version="1.0" xmlns="http://www.w3.org/2000/svg"
 width="800.000000pt" height="800.000000pt" viewBox="0 0 800.000000 800.000000"
 preserveAspectRatio="xMidYMid meet">

<g transform="translate(0.000000,800.000000) scale(0.100000,-0.100000)"
fill="#000000" stroke="none">
<path d="M4845 7309 c-115 -15 -229 -47 -435 -121 -426 -154 -624 -252 -942
-465 -125 -83 -266 -175 -313 -203 -97 -57 -240 -130 -254 -130 -5 0 -12 19
-16 43 -13 75 -39 106 -91 107 -41 0 -71 -31 -85 -86 -19 -76 -137 -169 -277
-218 l-39 -14 -18 35 c-11 19 -43 57 -73 84 -66 60 -164 95 -243 86 l-49 -6
-57 112 c-67 129 -89 147 -146 124 -28 -12 -38 -26 -66 -93 -81 -194 -200
-342 -385 -480 -43 -32 -122 -92 -175 -132 l-96 -72 -15 22 c-121 180 -279
167 -372 -30 -72 -151 0 -295 174 -347 43 -13 58 -12 150 7 128 25 305 28 398
5 70 -17 166 -55 158 -62 -3 -3 -49 -12 -104 -20 -128 -19 -339 -19 -470 0
-82 13 -109 13 -126 4 -44 -23 -47 -37 -48 -191 l0 -147 28 -21 c23 -19 35
-21 83 -16 l55 7 13 -153 c16 -191 29 -219 99 -218 42 1 60 21 98 111 20 46
37 85 38 86 1 1 30 -31 65 -72 79 -94 121 -107 171 -52 16 17 20 35 20 99 0
106 16 163 55 203 75 75 229 74 553 -5 117 -28 132 -34 127 -50 -3 -10 19
-167 50 -348 30 -181 55 -336 55 -343 0 -8 -12 -20 -28 -27 -58 -26 -216 -149
-301 -233 -87 -86 -179 -199 -235 -290 l-29 -46 -102 33 c-197 62 -377 71
-499 23 -165 -64 -276 -253 -293 -495 -6 -79 -4 -86 17 -109 17 -18 34 -25 60
-25 52 0 77 30 85 105 16 140 56 258 108 313 31 34 89 61 152 73 101 19 233
-10 520 -111 95 -34 132 -43 185 -42 112 0 229 60 378 191 l80 70 11 -63 c18
-103 17 -105 -56 -177 -87 -84 -133 -118 -213 -160 -59 -31 -73 -34 -155 -34
-86 0 -95 2 -200 49 -244 108 -247 109 -327 114 -65 4 -84 1 -122 -18 -81 -39
-131 -121 -160 -263 -18 -84 -12 -115 26 -141 59 -41 113 -2 134 97 28 133 60
174 128 161 44 -8 49 -15 36 -49 -18 -47 -50 -177 -65 -266 -55 -318 -30 -667
70 -975 45 -141 158 -365 239 -479 340 -472 919 -781 1502 -802 191 -7 285 5
430 52 268 88 758 329 1258 619 81 47 152 86 157 86 5 0 9 -6 9 -12 0 -23 96
-213 143 -284 243 -368 633 -575 1037 -550 381 22 689 230 860 581 104 212
139 346 147 570 8 223 -24 386 -112 568 -57 119 -113 197 -219 303 -151 150
-299 234 -515 292 -83 22 -118 25 -256 26 -133 1 -177 -3 -264 -22 -119 -27
-246 -70 -346 -117 -38 -19 -71 -33 -71 -32 -1 1 -25 151 -53 332 -28 182 -54
341 -56 355 -5 24 -2 27 69 48 174 51 400 165 561 284 102 75 320 298 398 408
136 191 275 518 328 770 31 148 38 431 15 590 -61 415 -251 797 -556 1113
-262 274 -598 464 -945 537 -116 24 -352 34 -460 19z m386 -175 c616 -105
1186 -647 1365 -1300 113 -416 67 -821 -141 -1239 -85 -170 -175 -294 -310
-430 -126 -126 -254 -220 -406 -300 -105 -54 -284 -125 -317 -125 -15 0 -24
43 -68 318 -28 174 -50 319 -48 321 1 2 31 -4 66 -13 92 -24 224 -31 315 -16
198 31 423 158 423 238 0 44 -9 61 -42 78 -37 19 -64 13 -114 -27 -167 -133
-392 -164 -631 -85 -62 20 -172 62 -245 92 -353 147 -429 169 -598 169 -120 0
-128 -1 -193 -32 -95 -45 -171 -125 -226 -236 -54 -108 -61 -152 -31 -189 16
-21 30 -28 56 -28 54 0 69 14 98 86 47 117 117 199 193 225 60 22 184 15 286
-15 117 -35 450 -171 459 -188 7 -13 15 -62 189 -1183 54 -352 102 -657 105
-677 l6 -37 -90 87 c-200 197 -444 313 -739 353 -108 14 -373 6 -458 -15 -68
-16 -95 -42 -95 -90 0 -42 28 -67 110 -96 98 -34 288 -135 277 -146 -4 -4
-162 -33 -1177 -213 -217 -39 -397 -67 -401 -63 -5 6 -427 2513 -432 2567 -3
29 49 36 263 39 171 2 191 4 263 29 43 15 100 38 126 52 39 19 202 52 808 160
418 74 784 135 815 135 91 0 155 -26 218 -90 53 -52 112 -160 89 -160 -5 0
-62 16 -127 35 -217 64 -301 78 -477 79 -181 1 -248 -12 -371 -70 -171 -81
-299 -217 -401 -430 l-47 -96 20 -36 c24 -47 71 -63 109 -38 14 9 44 53 66 99
110 220 254 348 440 392 92 21 266 19 393 -5 57 -11 196 -48 308 -81 172 -52
218 -62 304 -66 112 -6 212 9 349 54 144 46 398 176 452 229 52 52 12 139 -62
137 l-35 -1 0 121 c0 478 -198 807 -558 927 -282 94 -601 104 -888 29 -168
-44 -395 -150 -481 -224 -30 -26 -37 -38 -36 -66 2 -51 40 -143 89 -215 24
-35 40 -64 34 -64 -25 0 -122 44 -166 75 -47 33 -83 42 -119 29 -54 -21 -70
-190 -29 -331 6 -20 4 -21 -37 -12 -41 10 -129 44 -129 51 0 2 11 25 25 52 32
63 31 81 -4 117 -49 49 -75 41 -167 -49 -55 -54 -206 -144 -219 -130 -3 2 4
45 14 94 21 93 35 219 46 390 9 138 -9 174 -87 174 -22 0 -40 -10 -67 -39 -50
-54 -96 -75 -208 -95 -33 -5 -33 -5 -33 34 l0 40 129 64 c176 89 269 145 531
321 154 103 274 175 380 228 254 125 704 292 865 321 110 20 310 20 426 0z
m-3311 -884 c6 0 10 -4 10 -10 0 -5 -7 -10 -16 -10 -9 0 -47 -16 -85 -36 -81
-43 -155 -118 -194 -199 -34 -69 -45 -77 -101 -80 -58 -2 -88 -30 -88 -81 0
-55 38 -84 111 -84 99 0 172 51 216 149 25 56 90 127 141 153 22 11 72 24 110
29 57 7 75 14 94 34 47 55 13 125 -68 138 -14 2 -3 5 23 6 88 2 156 -51 176
-138 11 -49 32 -77 67 -85 47 -12 296 86 382 151 18 14 35 23 37 21 3 -2 -2
-44 -9 -94 -7 -49 -10 -99 -5 -110 12 -33 49 -54 96 -54 59 0 189 19 247 36
27 8 52 14 54 14 8 0 -10 -156 -29 -254 -21 -106 -43 -157 -84 -195 -47 -43
-24 -121 41 -137 28 -7 147 3 194 16 l30 9 -20 -28 c-32 -46 -140 -142 -213
-189 -187 -121 -299 -120 -782 3 -240 61 -350 82 -484 92 l-94 6 67 22 c69 22
81 32 92 73 23 84 -167 229 -361 278 -38 9 -128 20 -199 23 l-130 6 45 29 c97
64 378 284 435 341 65 65 141 163 188 241 l28 49 34 -68 c19 -37 39 -67 44
-67z m3275 -34 c65 -15 144 -43 195 -67 194 -95 317 -290 355 -563 9 -63 8
-259 -1 -342 l-7 -66 -71 -33 c-172 -78 -318 -113 -447 -106 -23 1 -28 8 -44
66 -66 244 -225 384 -455 401 -63 5 -125 -3 -386 -50 -171 -31 -316 -56 -322
-56 -6 0 -8 15 -5 40 5 34 0 47 -30 92 -32 47 -72 136 -65 144 2 1 29 -6 61
-17 120 -41 253 -34 370 18 63 28 77 45 77 93 0 37 -38 80 -72 80 -40 1 -101
35 -141 79 -46 51 -75 107 -61 120 24 24 220 112 309 140 166 52 238 61 445
57 155 -4 203 -8 295 -30z m-4267 -403 c25 -41 62 -111 62 -118 0 -2 -15 -5
-32 -8 -39 -6 -85 12 -112 41 -16 18 -17 26 -7 54 14 40 39 78 50 78 5 0 22
-21 39 -47z m2643 -372 c67 -31 192 -61 255 -61 21 0 35 -2 32 -5 -3 -3 -106
-23 -229 -45 -123 -22 -234 -42 -246 -45 -18 -4 -7 14 47 82 39 48 70 90 70
95 0 11 1 11 71 -21z m-1904 -127 c-3 -3 -12 -4 -19 -1 -8 3 -5 6 6 6 11 1 17
-2 13 -5z m-145 -40 c-63 -31 -134 -108 -158 -170 l-17 -45 -44 50 c-39 44
-50 51 -82 51 -20 0 -42 -5 -48 -11 -8 -8 -13 1 -18 35 -10 66 -42 90 -113 83
-37 -4 -52 -2 -49 6 2 7 22 9 58 7 89 -8 390 -2 444 8 79 15 82 14 27 -14z
m867 -1195 c6 -36 11 -71 11 -78 0 -19 -160 -180 -226 -227 -92 -66 -167 -98
-216 -91 -22 3 -42 8 -45 11 -12 11 109 168 202 262 101 102 243 211 256 197
4 -5 12 -38 18 -74z m122 -735 c8 -43 6 -51 -25 -103 -133 -221 -183 -404
-174 -633 5 -100 11 -140 35 -215 75 -228 221 -393 453 -512 52 -27 118 -56
146 -65 l51 -17 26 -161 c28 -168 41 -204 82 -214 13 -3 452 66 991 156 798
134 968 160 975 149 17 -28 26 -22 -231 -169 -491 -282 -905 -486 -1161 -571
-205 -69 -411 -73 -678 -13 -613 137 -1095 547 -1285 1091 -126 364 -137 771
-30 1138 18 65 7 64 139 8 85 -36 96 -38 195 -37 93 0 113 3 181 30 81 33 160
82 242 150 29 23 53 41 56 39 2 -2 7 -25 12 -51z m117 -702 c34 -207 63 -385
62 -394 0 -10 13 -32 29 -50 l29 -32 87 12 c65 10 90 10 95 2 10 -15 33 -180
27 -186 -3 -3 -34 9 -68 27 -358 180 -494 513 -368 905 16 52 33 94 37 94 4 0
35 -170 70 -378z m3747 206 c243 -37 476 -184 615 -388 206 -303 232 -695 69
-1066 -88 -201 -230 -361 -396 -447 -147 -76 -220 -92 -408 -91 -145 0 -168 3
-249 28 -234 71 -435 221 -572 427 -82 122 -121 208 -180 394 -101 319 -214
541 -385 751 -80 99 -234 241 -331 308 l-82 56 51 0 c176 0 433 -91 592 -210
152 -113 243 -228 351 -442 149 -296 273 -480 415 -616 102 -98 186 -146 281
-163 152 -26 320 76 413 251 153 286 8 649 -294 736 -68 19 -182 21 -259 4
-77 -18 -222 -93 -299 -156 -38 -30 -70 -54 -72 -52 -1 2 -15 27 -30 57 -24
48 -26 58 -16 97 15 59 14 137 -4 250 -9 53 -15 98 -13 99 16 14 181 89 249
113 84 30 248 68 319 75 48 4 151 -2 235 -15z m-1682 -443 c41 -46 103 -126
138 -177 66 -97 185 -321 172 -325 -23 -8 -1797 -302 -1801 -299 -5 5 -102
576 -102 601 0 19 51 29 733 151 402 73 744 132 759 133 22 1 41 -15 101 -84z
m1576 -209 c69 -36 118 -87 154 -165 39 -83 42 -184 8 -273 -26 -68 -106 -160
-164 -190 -119 -60 -289 57 -466 321 -93 139 -93 124 3 200 172 137 333 173
465 107z"/>
<path d="M3926 4756 c-76 -82 -146 -224 -146 -296 0 -62 75 -101 126 -65 12 7
33 47 48 87 15 42 47 101 76 138 58 76 65 116 25 155 -39 40 -80 34 -129 -19z"/>
<path d="M3455 4482 c-84 -39 -124 -176 -69 -241 32 -38 57 -42 48 -7 -8 33
73 227 98 234 10 2 17 10 15 16 -6 18 -49 17 -92 -2z"/>
<path d="M3567 4474 c-3 -4 0 -16 8 -28 8 -11 15 -40 15 -63 0 -24 4 -43 9
-43 7 0 51 89 51 104 0 3 -10 6 -22 6 -12 0 -29 7 -38 15 -9 8 -19 12 -23 9z"/>
<path d="M3741 4323 c-21 -126 -20 -124 -46 -117 -12 3 -26 1 -29 -5 -4 -6 4
-13 19 -17 30 -7 35 -47 8 -63 -15 -8 -9 -14 40 -35 68 -31 80 -32 73 -8 -3 9
3 71 14 137 11 66 20 127 20 135 0 14 -50 40 -77 40 -6 0 -16 -30 -22 -67z"/>
<path d="M3655 4257 c-35 -45 -67 -77 -77 -77 -29 0 -20 -25 13 -37 37 -14 55
-8 38 13 -9 11 0 28 41 84 71 96 58 112 -15 17z"/>
<path d="M3944 4304 c8 -21 -82 -234 -100 -234 -8 0 -14 -4 -14 -9 0 -8 18
-16 96 -48 6 -2 34 51 63 122 32 75 59 125 67 125 29 0 12 18 -37 39 -62 25
-83 27 -75 5z"/>
<path d="M2694 4234 c8 -21 -82 -234 -100 -234 -31 0 -11 -18 47 -43 61 -27
90 -27 69 -2 -8 10 2 44 40 135 28 67 50 124 48 125 -2 2 -20 10 -42 19 -49
21 -70 21 -62 0z"/>
<path d="M3532 4233 c-12 -8 -33 -15 -47 -15 -15 0 -25 -6 -25 -14 0 -21 54
-17 84 7 42 33 33 53 -12 22z"/>
<path d="M4164 4214 c8 -21 -82 -234 -100 -234 -30 0 -12 -18 38 -39 28 -12
53 -20 54 -18 7 7 115 269 112 272 -2 2 -20 10 -42 19 -49 21 -70 21 -62 0z"/>
<path d="M2816 4191 c-3 -4 3 -16 14 -26 11 -10 20 -29 20 -42 0 -35 19 -28
36 13 8 20 14 37 12 38 -12 7 -61 26 -68 26 -5 0 -11 -4 -14 -9z"/>
<path d="M4286 4171 c-3 -4 3 -16 14 -26 11 -10 20 -29 20 -42 0 -35 19 -28
36 13 8 20 14 37 12 38 -12 7 -61 26 -68 26 -5 0 -11 -4 -14 -9z"/>
<path d="M2934 4134 c8 -21 -82 -234 -100 -234 -31 0 -11 -18 47 -43 61 -27
90 -27 69 -2 -8 10 2 44 40 135 28 67 50 124 48 125 -2 2 -20 10 -42 19 -49
21 -70 21 -62 0z"/>
<path d="M4402 4112 c0 -15 -16 -65 -36 -112 -20 -46 -36 -95 -36 -108 0 -26
53 -82 77 -82 11 0 14 7 9 24 -7 28 66 214 92 234 21 16 10 25 -55 51 l-52 20
1 -27z"/>
<path d="M2789 4087 c-22 -18 -26 -28 -22 -54 7 -42 19 -42 37 0 34 82 31 93
-15 54z"/>
<path d="M3055 4080 c9 -28 -12 -87 -37 -104 -13 -9 -18 -21 -15 -31 4 -8 -1
-34 -10 -56 -19 -49 -7 -85 32 -95 34 -8 75 3 75 21 0 9 -6 12 -15 9 -13 -5
-14 -2 -5 21 15 40 12 62 -12 85 l-22 20 31 0 c65 0 90 82 39 127 -35 30 -70
32 -61 3z"/>
<path d="M4258 4067 c-21 -18 -25 -28 -21 -54 7 -42 19 -42 37 0 34 82 31 94
-16 54z"/>
<path d="M4027 4044 c-15 -13 -37 -24 -47 -24 -10 0 -22 -4 -25 -10 -3 -5 -4
-10 -2 -10 3 0 21 -7 41 -15 l36 -15 15 37 c22 53 16 66 -18 37z"/>
<path d="M4567 4064 c-3 -4 -1 -16 4 -27 8 -17 1 -42 -29 -112 -33 -80 -41
-91 -70 -100 -37 -11 -38 -32 -1 -27 38 6 54 27 95 124 25 59 44 93 56 96 11
2 17 9 15 15 -4 13 -62 38 -70 31z"/>
<path d="M3281 3933 c-21 -126 -20 -124 -46 -117 -12 3 -26 1 -29 -5 -4 -6 4
-13 19 -17 30 -7 35 -47 8 -63 -15 -8 -9 -14 40 -35 68 -31 80 -32 73 -8 -3 9
3 71 14 137 11 66 20 127 20 135 0 14 -50 40 -77 40 -6 0 -16 -30 -22 -67z"/>
<path d="M4665 3964 c-39 -42 -34 -90 16 -153 43 -54 47 -84 11 -89 -41 -6
-26 -32 19 -32 54 0 99 42 99 93 0 32 -41 104 -69 122 -18 10 -12 44 9 57 31
19 24 28 -20 28 -31 0 -47 -6 -65 -26z"/>
<path d="M4790 3971 c0 -6 7 -26 16 -43 9 -17 14 -39 11 -49 -3 -11 -1 -21 4
-24 8 -6 31 32 44 74 6 20 5 23 -10 17 -12 -4 -26 1 -42 15 -13 13 -23 17 -23
10z"/>
<path d="M4260 3950 c-14 -11 -37 -20 -52 -20 -39 0 -35 -18 7 -36 43 -18 50
-14 65 32 15 44 11 48 -20 24z"/>
<path d="M3195 3867 c-35 -45 -67 -77 -77 -77 -29 0 -20 -25 13 -37 37 -14 55
-8 38 13 -9 11 0 28 41 84 71 96 58 112 -15 17z"/>
<path d="M3475 3920 c-3 -5 0 -12 6 -15 11 -7 5 -235 -7 -277 -3 -10 -1 -18 4
-18 14 0 118 131 127 160 7 24 7 25 -9 5 -16 -19 -17 -16 -14 48 2 37 3 67 1
67 -1 0 -25 9 -52 20 -28 11 -53 15 -56 10z"/>
<path d="M3647 3818 c-8 -18 -29 -71 -48 -117 -21 -52 -41 -86 -51 -89 -31 -8
-20 -22 37 -48 66 -28 79 -30 71 -7 -9 22 71 213 98 235 20 16 20 17 -27 37
-63 27 -64 27 -80 -11z"/>
<path d="M4588 3797 c-22 -52 -22 -57 -1 -57 9 0 24 -7 34 -16 25 -22 46 -8
24 16 -9 10 -19 37 -22 59 -3 23 -8 41 -12 41 -3 0 -14 -19 -23 -43z"/>
<path d="M3439 3748 c-15 -39 -33 -67 -47 -73 -19 -8 -31 -25 -18 -25 2 0 20
-7 41 -16 l37 -15 -7 31 c-4 19 -1 46 10 74 9 24 15 53 13 65 -2 15 -10 3 -29
-41z"/>
<path d="M3804 3774 c8 -21 -82 -234 -100 -234 -30 0 -12 -18 38 -39 28 -12
53 -20 54 -18 7 7 115 269 112 272 -2 2 -20 10 -42 19 -49 21 -70 21 -62 0z"/>
<path d="M3926 3731 c-3 -4 3 -16 14 -26 11 -10 20 -29 20 -42 0 -35 19 -28
36 13 8 20 14 37 12 38 -12 7 -61 26 -68 26 -5 0 -11 -4 -14 -9z"/>
<path d="M4040 3662 c0 -21 -7 -89 -15 -152 -12 -91 -12 -115 -3 -122 23 -14
34 -8 65 35 23 32 33 61 42 122 6 44 16 82 21 83 25 9 5 31 -46 51 -31 11 -58
21 -60 21 -2 0 -4 -17 -4 -38z"/>
<path d="M3898 3627 c-21 -18 -25 -28 -21 -54 7 -42 19 -42 37 0 34 82 31 94
-16 54z"/>
<path d="M4181 3591 c-27 -33 -34 -54 -45 -138 -13 -89 -13 -99 2 -110 23 -18
25 -17 58 30 25 34 32 59 43 141 11 82 11 100 -1 107 -21 13 -24 11 -57 -30z"/>
<path d="M4294 3575 c5 -19 0 -34 -19 -59 -14 -18 -25 -41 -25 -51 0 -12 12
-2 36 29 20 26 47 52 61 57 30 11 29 13 -21 34 l-38 16 6 -26z"/>
<path d="M3900 3510 c-14 -11 -37 -20 -52 -20 -39 0 -35 -18 7 -36 43 -18 50
-14 65 32 15 44 11 48 -20 24z"/>
<path d="M4402 3513 c-80 -39 -117 -163 -69 -234 26 -39 54 -46 49 -12 -4 31
77 222 100 234 10 5 16 14 13 20 -9 14 -56 10 -93 -8z"/>
<path d="M4515 3488 c7 -29 -69 -217 -96 -238 -40 -31 19 -41 77 -14 36 17 76
76 88 127 10 41 -3 93 -30 122 -29 31 -46 32 -39 3z"/>
<path d="M4654 3424 c8 -21 -82 -234 -100 -234 -31 0 -11 -18 47 -43 61 -27
90 -27 69 -2 -8 10 2 44 40 135 28 67 50 124 48 125 -2 2 -20 10 -42 19 -49
21 -70 21 -62 0z"/>
<path d="M4775 3370 c9 -28 -12 -87 -37 -104 -13 -9 -18 -21 -15 -31 4 -8 -1
-34 -10 -56 -19 -49 -7 -85 32 -95 34 -8 75 3 75 21 0 9 -6 12 -15 9 -13 -5
-14 -2 -5 21 15 40 12 62 -12 85 l-22 20 31 0 c65 0 90 82 39 127 -35 30 -70
32 -61 3z"/>
<path d="M4947 3300 c7 -24 -78 -230 -94 -230 -7 0 -13 -5 -13 -10 0 -15 112
-62 123 -51 5 5 5 11 -1 15 -13 8 72 216 95 233 20 16 19 17 -41 42 -60 26
-76 27 -69 1z"/>
<path d="M5106 3253 c-3 -3 -1 -12 5 -20 15 -17 -1 -36 -57 -69 -41 -24 -43
-27 -49 -90 -4 -35 -12 -64 -17 -64 -5 0 -8 -5 -6 -11 4 -13 118 -61 119 -51
0 4 0 55 -1 114 l-1 107 30 15 c16 9 39 16 51 16 11 0 20 4 20 10 0 16 -83 54
-94 43z"/>
<path d="M1922 5950 c-67 -41 -77 -133 -20 -190 76 -76 208 -24 208 82 0 102
-102 161 -188 108z"/>
<path d="M1083 3415 c-42 -29 -81 -206 -58 -261 22 -53 97 -65 134 -21 13 16
51 184 51 228 0 55 -78 89 -127 54z"/>
</g>
</svg>
